<svg width="111" height="53" viewBox="0 0 111 53" fill="none" xmlns="http://www.w3.org/2000/svg">
<g clip-path="url(#clip0_9758_10173)">
<g clip-path="url(#clip1_9758_10173)">
<path d="M33.4382 46.5473C28.9395 46.5473 25.291 42.9271 25.291 38.4631V13.5722C25.291 9.10823 28.9395 5.48804 33.4382 5.48804C37.9368 5.48804 41.5839 9.10823 41.5839 13.5722V38.456C41.5896 42.9271 37.9425 46.5473 33.4382 46.5473Z" fill="url(#paint0_linear_9758_10173)"/>
<path d="M10.1008 46.5473C5.60218 46.5473 1.95508 42.9271 1.95508 38.4631V13.5722C1.95508 9.10823 5.60218 5.48804 10.1008 5.48804C14.5994 5.48804 18.2465 9.10823 18.2465 13.5722V38.456C18.2522 42.9271 14.5994 46.5473 10.1008 46.5473Z" fill="url(#paint1_linear_9758_10173)"/>
<path d="M37.3909 21.598C38.241 20.73 39.0141 19.785 39.7087 18.7859C46.5793 9.37485 32.8738 -0.135987 26.4111 9.42901C25.8548 10.3141 25.0461 11.0396 24.0805 11.4686C22.9066 11.9974 21.5473 12.1042 20.3007 11.7779C19.3123 11.5156 18.3966 10.9811 17.7077 10.2257C17.528 10.0291 17.3597 9.82096 17.2099 9.60147C15.7793 7.15285 13.162 5.48243 10.1011 5.48814C3.76967 5.39264 -0.225454 12.6573 3.20628 17.8823C3.51151 18.3754 3.84099 18.8629 4.18901 19.3275C5.75797 21.4555 7.72344 23.2983 9.95706 24.7193C13.2633 26.8359 17.1628 28.0131 21.0924 28.1257C27.1357 28.3338 33.2033 25.9322 37.3909 21.598Z" fill="#68EC92"/>
<path d="M37.3909 21.598C38.241 20.73 39.0141 19.785 39.7087 18.7859C46.5793 9.37485 32.8738 -0.135987 26.4111 9.42901C25.8548 10.3141 25.0461 11.0396 24.0805 11.4686C22.9066 11.9974 21.5473 12.1042 20.3007 11.7779C19.3123 11.5156 18.3966 10.9811 17.7077 10.2257C17.528 10.0291 17.3597 9.82096 17.2099 9.60147C15.7793 7.15285 13.162 5.48243 10.1011 5.48814C3.76967 5.39264 -0.225454 12.6573 3.20628 17.8823C3.51151 18.3754 3.84099 18.8629 4.18901 19.3275C5.75797 21.4555 7.72344 23.2983 9.95706 24.7193C13.2633 26.8359 17.1628 28.0131 21.0924 28.1257C27.1357 28.3338 33.2033 25.9322 37.3909 21.598Z" fill="#9A85F5"/>
<path d="M52.1232 19.0596C54.5965 19.0596 56.7117 19.9333 58.4661 21.6749C60.2205 23.4166 61.1019 25.5146 61.1019 27.9704C61.1019 30.4261 60.2219 32.5241 58.4661 34.2658C56.7103 36.0075 54.5965 36.8812 52.1232 36.8812C49.65 36.8812 47.5347 36.0075 45.7804 34.2658C44.026 32.5241 43.1445 30.4261 43.1445 27.9704C43.1445 25.5146 44.0246 23.4166 45.7804 21.6749C47.5362 19.9333 49.65 19.0596 52.1232 19.0596ZM52.1232 22.8821C50.6912 22.8821 49.4703 23.381 48.4576 24.3801C47.4577 25.3792 46.9599 26.5921 46.9599 28.0188C46.9599 29.4455 47.4577 30.6399 48.4576 31.639C49.4646 32.6381 50.6855 33.137 52.1232 33.137C53.561 33.137 54.7648 32.6381 55.7718 31.639C56.7773 30.6399 57.2808 29.4341 57.2808 28.0188C57.2808 26.6035 56.7773 25.3849 55.7718 24.3801C54.7648 23.381 53.5438 22.8821 52.1232 22.8821Z" fill="white"/>
<path d="M70.3372 19.0596C70.8578 19.0596 71.3014 19.2434 71.6793 19.6183C72.0445 19.9874 72.2242 20.4321 72.2242 20.9495V20.9794C72.2242 21.4968 72.0445 21.9372 71.6793 22.2935C71.3071 22.6627 70.8592 22.8522 70.3372 22.8522H69.45C68.5999 22.8522 67.8739 23.143 67.282 23.7316C66.7015 24.3202 66.4019 25.04 66.3948 25.8838V35.0155C66.3948 35.5386 66.2094 35.979 65.8314 36.3296C65.4606 36.6987 65.017 36.8883 64.5078 36.8883H64.4593C63.9501 36.8883 63.5079 36.7044 63.1357 36.3296C62.7648 35.979 62.5723 35.5386 62.5723 35.0155V25.8838C62.5908 23.9939 63.2612 22.389 64.5848 21.0564C65.927 19.7252 67.5501 19.0596 69.4486 19.0596H70.3357H70.3372Z" fill="white"/>
<path d="M81.272 39.4566C82.5713 39.4566 83.7452 38.9506 84.7935 37.9401C85.8833 36.9053 86.4281 35.7052 86.4281 34.337C85.2428 36.0373 83.5227 36.8868 81.2648 36.8868C78.7902 36.8868 76.6764 36.0131 74.922 34.2714C73.1662 32.5297 72.2861 30.4317 72.2861 27.976C72.2861 25.5202 73.1662 23.4222 74.922 21.6806C76.6764 19.9389 78.7916 19.0652 81.2648 19.0652C83.7381 19.0652 85.8405 19.9332 87.5963 21.6635C89.3521 23.388 90.2378 25.4803 90.245 27.9475V34.3384C90.245 36.7514 89.305 38.8565 87.4237 40.6524C85.6023 42.3883 83.5541 43.2506 81.2663 43.2506C77.7618 43.2506 75.1388 41.9009 73.3958 39.1971C73.1861 38.8765 73.0849 38.5487 73.0849 38.2037C73.0849 37.9956 73.1205 37.7933 73.1918 37.5852C73.3773 37.0079 73.7609 36.616 74.3486 36.4079L74.3971 36.3908C74.6538 36.2953 74.9063 36.254 75.1459 36.254C75.7264 36.254 76.2185 36.5447 76.6136 37.122C77.6377 38.6798 79.1952 39.458 81.2748 39.458L81.272 39.4566ZM86.4295 27.8819C86.4053 26.4909 85.8961 25.3022 84.8834 24.3216C83.8836 23.341 82.6797 22.8536 81.2663 22.8536C79.8528 22.8536 78.6133 23.3524 77.6006 24.3515C76.5993 25.3506 76.103 26.5564 76.103 27.9717C76.103 29.387 76.5993 30.6056 77.6006 31.6104C78.6076 32.6038 79.8285 33.097 81.2663 33.097C82.704 33.097 83.9135 32.6038 84.9134 31.6104C85.9203 30.6113 86.4224 29.3984 86.4224 27.9717V27.8819H86.4281H86.4295Z" fill="white"/>
<path d="M94.6807 17.0499C94.0759 17.0499 93.5596 16.8361 93.1346 16.4143C92.7095 15.9924 92.4941 15.4807 92.4941 14.8807C92.4941 14.2806 92.7095 13.7875 93.1346 13.3642C93.5596 12.9423 94.0745 12.7285 94.6807 12.7285C95.2869 12.7285 95.7832 12.9423 96.2083 13.3642C96.6447 13.7747 96.8615 14.2792 96.8615 14.8807C96.8615 15.4821 96.6462 15.9981 96.2083 16.4143C95.7832 16.8361 95.274 17.0499 94.6807 17.0499ZM94.6921 19.0596C95.2184 19.0596 95.662 19.2434 96.0157 19.6183C96.3866 19.9874 96.5791 20.4321 96.5791 20.9495V35.0141C96.5791 35.5371 96.3937 35.9775 96.0157 36.3282C95.662 36.6973 95.2184 36.8869 94.6921 36.8869H94.6621C94.1415 36.8869 93.698 36.703 93.32 36.3282C92.9477 35.9775 92.7566 35.5371 92.7566 35.0141V20.9495C92.7566 20.4321 92.942 19.9917 93.32 19.6183C93.6908 19.2491 94.1401 19.0596 94.6621 19.0596H94.6921Z" fill="white"/>
<path d="M110.56 33.7582C110.266 34.3967 109.871 34.9426 109.375 35.3987C108.868 35.8648 108.281 36.2296 107.61 36.4919C106.94 36.7541 106.237 36.8867 105.496 36.8867H101.102C100.778 36.8867 100.494 36.8311 100.25 36.7199C99.9965 36.6187 99.7897 36.4762 99.6271 36.2952C99.4545 36.1227 99.3276 35.9203 99.2463 35.688C99.155 35.4657 99.1094 35.2319 99.1094 34.9896C99.1094 34.7473 99.1493 34.5293 99.2306 34.3055C99.3119 34.0931 99.4389 33.9007 99.6114 33.7283C99.774 33.5558 99.9809 33.4147 100.235 33.3035C100.479 33.2023 100.767 33.151 101.102 33.151H105.496C105.719 33.151 105.937 33.1211 106.15 33.0598C106.352 32.9985 106.535 32.903 106.697 32.7705C106.86 32.6493 106.991 32.4911 107.093 32.3001C107.184 32.1177 107.229 31.9053 107.229 31.6616C107.229 31.4393 107.184 31.2212 107.093 31.0089C106.991 30.7965 106.829 30.6497 106.606 30.5684L102.319 28.8367C101.862 28.6443 101.451 28.4006 101.088 28.107C100.723 27.8234 100.413 27.4998 100.161 27.135C99.8967 26.7701 99.6999 26.3653 99.5672 25.9192C99.4246 25.4831 99.3547 25.0227 99.3547 24.5367C99.3547 23.8583 99.4916 23.2354 99.7655 22.6682C100.039 22.1109 100.409 21.6306 100.875 21.2244C101.332 20.8196 101.858 20.5003 102.457 20.2666C103.055 20.0442 103.684 19.9316 104.343 19.9316H108.265C108.589 19.9316 108.878 19.983 109.132 20.0841C109.376 20.1953 109.579 20.3378 109.74 20.5089C109.902 20.6913 110.029 20.8937 110.121 21.116C110.202 21.3484 110.248 21.5864 110.258 21.8301C110.258 22.0624 110.218 22.2862 110.136 22.4986C110.055 22.7209 109.934 22.919 109.771 23.0915C109.599 23.2639 109.39 23.4008 109.148 23.5019C108.894 23.6131 108.6 23.6687 108.266 23.6687H104.344C104.223 23.6687 104.09 23.6844 103.949 23.7143C103.796 23.7542 103.659 23.8112 103.538 23.8811C103.407 23.9523 103.3 24.0378 103.219 24.139C103.137 24.2502 103.097 24.3828 103.097 24.5338C103.097 24.7362 103.153 24.8987 103.264 25.0199C103.376 25.151 103.528 25.2579 103.721 25.3391L108.008 27.0865C108.465 27.2689 108.88 27.5169 109.255 27.8305C109.62 28.154 109.934 28.5146 110.198 28.9094C110.451 29.3142 110.648 29.7503 110.791 30.2164L111.003 31.6602C111.003 32.4199 110.857 33.1183 110.563 33.7568L110.56 33.7582Z" fill="white"/>
</g>
</g>
<defs>
<linearGradient id="paint0_linear_9758_10173" x1="33.4367" y1="46.5487" x2="33.4367" y2="5.48804" gradientUnits="userSpaceOnUse">
<stop stop-color="#6055DB"/>
<stop offset="1" stop-color="#8464DD"/>
</linearGradient>
<linearGradient id="paint1_linear_9758_10173" x1="10.1008" y1="48.3559" x2="10.1008" y2="48.3559" gradientUnits="userSpaceOnUse">
<stop stop-color="#6055DB"/>
<stop offset="1" stop-color="#8464DD"/>
</linearGradient>
<clipPath id="clip0_9758_10173">
<rect width="111" height="52.0312" fill="white"/>
</clipPath>
<clipPath id="clip1_9758_10173">
<rect width="111.623" height="41.0949" fill="white" transform="translate(-0.62207 5.45239)"/>
</clipPath>
</defs>
</svg>
